<svg id="Capa_1" enable-background="new 0 0 512 512" height="512" viewBox="0 0 512 512" width="512" xmlns="http://www.w3.org/2000/svg" xmlns:xlink="http://www.w3.org/1999/xlink"><linearGradient id="SVGID_1_" gradientUnits="userSpaceOnUse" x1="256" x2="256" y1="512" y2="0"><stop offset="0" stop-color="#fd3a84"/><stop offset="1" stop-color="#ffa68d"/></linearGradient><path d="m145.815 124.602-9.9-69.297c-.696-4.873-3.738-9.094-8.141-11.295l-84.852-42.426c-5.775-2.887-12.75-1.756-17.315 2.81l-21.213 21.213c-4.565 4.565-5.697 11.54-2.81 17.315l42.426 84.853c2.201 4.403 6.422 7.445 11.295 8.141l69.297 9.899 88.972 88.972-73.293 73.293c-37.834-13.481-80.685-4.169-109.527 24.674-31.416 31.417-39.663 79.447-20.52 119.517 2.099 4.394 6.2 7.495 10.999 8.318 4.798.822 9.699-.735 13.142-4.177l49.412-49.412 21.213 21.213-49.412 49.412c-3.443 3.443-5.001 8.343-4.178 13.143.823 4.799 3.925 8.9 8.318 10.999 14.403 6.88 29.83 10.222 45.148 10.222 27.299-.001 54.245-10.618 74.369-30.742 28.843-28.843 38.155-71.693 24.674-109.527l73.293-73.293 16.031 16.031c-13.556 23-10.469 53.17 9.264 72.903l107.066 107.066c11.334 11.332 26.401 17.573 42.427 17.573s31.094-6.241 42.426-17.574c11.333-11.332 17.574-26.399 17.574-42.426s-6.241-31.094-17.574-42.426l-107.065-107.067c-19.733-19.732-49.905-22.82-72.904-9.264l-16.03-16.03 73.292-73.293c11.438 4.075 23.331 6.068 35.158 6.068 27.3-.001 54.245-10.618 74.369-30.742 31.416-31.416 39.664-79.446 20.521-119.517-2.1-4.394-6.2-7.495-10.999-8.318-4.798-.823-9.699.734-13.143 4.177l-49.412 49.412-21.213-21.213 49.411-49.412c3.443-3.443 5.001-8.343 4.178-13.142s-3.925-8.9-8.318-10.999c-40.071-19.142-88.101-10.896-119.517 20.52-28.843 28.843-38.155 71.693-24.674 109.527l-73.293 73.293zm-78.487-17.274-34.076-68.153 5.924-5.924 68.153 34.077 6.667 46.667zm277.606 207.62c7.683 0 15.365 2.924 21.214 8.773l107.065 107.066c5.666 5.666 8.787 13.2 8.787 21.213s-3.121 15.547-8.787 21.213c-5.666 5.667-13.2 8.787-21.213 8.787s-15.547-3.121-21.213-8.787l-107.066-107.066c-11.696-11.697-11.696-30.729 0-42.427 5.849-5.848 13.53-8.772 21.213-8.772zm-169.309 42.64c-4.496 4.495-5.669 11.336-2.928 17.073 13.672 28.621 7.779 62.929-14.664 85.372-16.965 16.965-40.708 24.474-63.649 21.223l42.436-42.436c2.813-2.813 4.394-6.628 4.394-10.607s-1.581-7.794-4.394-10.607l-42.427-42.426c-5.857-5.858-15.355-5.858-21.213 0l-42.436 42.436c-3.249-22.941 4.259-46.685 21.223-63.649 22.443-22.443 56.751-28.336 85.373-14.664 5.737 2.74 12.578 1.567 17.072-2.928l80.375-80.375 21.213 21.213zm160.75-203.176c4.495-4.495 5.669-11.336 2.929-17.073-13.673-28.621-7.78-62.929 14.663-85.372 16.965-16.965 40.7-24.474 63.649-21.223l-42.436 42.436c-5.858 5.858-5.858 15.355 0 21.213l42.426 42.427c2.813 2.813 6.628 4.393 10.606 4.393s7.794-1.58 10.606-4.393l42.437-42.436c3.249 22.942-4.259 46.686-21.223 63.649-22.443 22.443-56.752 28.336-85.373 14.664-5.734-2.74-12.577-1.567-17.072 2.928l-80.374 80.375-21.213-21.213z" fill="url(#SVGID_1_)"/></svg>