<svg id="Capa_1" enable-background="new 0 0 512 512" height="512" viewBox="0 0 512 512" width="512" xmlns="http://www.w3.org/2000/svg"><g><path d="m314.836 8.355v417.395c0 4.615-3.741 8.355-8.355 8.355h-269.335c-4.615 0-8.355-3.741-8.355-8.355v-21.316c0-2.705 1.936-5.047 4.604-5.49 13.229-2.194 23.312-13.686 23.312-27.539 0-13.843-10.083-25.343-23.313-27.539-2.668-.443-4.604-2.785-4.604-5.49v-36.843c0-2.705 1.936-5.047 4.604-5.49 13.229-2.194 23.312-13.686 23.312-27.539s-10.083-25.345-23.312-27.539c-2.669-.443-4.604-2.785-4.604-5.49v-36.843c0-2.705 1.935-5.047 4.604-5.49 13.23-2.196 23.313-13.696 23.313-27.539 0-13.853-10.083-25.345-23.312-27.539-2.669-.443-4.604-2.785-4.604-5.49v-36.855c0-2.705 1.936-5.047 4.604-5.49 13.229-2.194 23.312-13.686 23.312-27.539 0-13.843-10.083-25.343-23.313-27.539-2.668-.443-4.604-2.785-4.604-5.49v-21.306c0-4.614 3.741-8.355 8.356-8.355h269.335c4.614 0 8.355 3.741 8.355 8.355z" fill="#efedef"/><path d="m306.481 0h-32.661c4.615 0 8.355 3.741 8.355 8.355v417.395c0 4.614-3.741 8.355-8.355 8.355h32.661c4.615 0 8.355-3.741 8.355-8.355v-417.395c0-4.614-3.741-8.355-8.355-8.355z" fill="#e3e0e4"/><g fill="#a4ace3"><path d="m260.751 118.518h-149.96c-4.267 0-7.726-3.459-7.726-7.726s3.459-7.726 7.726-7.726h149.96c4.267 0 7.726 3.459 7.726 7.726.001 4.266-3.458 7.726-7.726 7.726z"/><path d="m213.632 224.775h-102.836c-4.267 0-7.726-3.459-7.726-7.726s3.459-7.726 7.726-7.726h102.837c4.267 0 7.726 3.459 7.726 7.726s-3.46 7.726-7.727 7.726z"/><path d="m260.751 331.04h-149.96c-4.267 0-7.726-3.459-7.726-7.726s3.459-7.726 7.726-7.726h149.96c4.267 0 7.726 3.459 7.726 7.726.001 4.267-3.458 7.726-7.726 7.726z"/></g><path d="m455.911 177.226-84.692-106.293c-11.984-15.041-34.255-16.648-48.275-3.484l-113.036 106.137c-4.509 4.234-5.379 11.074-2.072 16.301l4.841 7.653c9.601 15.177 30.331 18.504 44.198 7.094l54.564-44.894c5.913-4.865 14.85-2.567 17.684 4.546l14.82 37.207c3.168 7.953 2.433 16.93-1.985 24.262l-36.393 60.398v192.034h108.274v-137.545l47.368-131.256c3.938-10.912 1.933-23.087-5.296-32.16z" fill="#ffcdbe"/><path d="m455.911 177.226-84.692-106.293c-10.148-12.736-27.67-15.836-41.314-8.496 3.816 2.045 7.298 4.878 10.181 8.496l84.692 106.293c7.23 9.073 9.234 21.248 5.296 32.16l-47.368 131.256v137.545h31.133v-137.545l47.368-131.256c3.938-10.912 1.933-23.087-5.296-32.16z" fill="#ebae9d"/><path d="m139.828 277.31c-2.67 0-5.268-1.386-6.699-3.865-2.133-3.695-.867-8.421 2.829-10.554l39.685-22.909c3.694-2.133 8.421-.867 10.554 2.829 2.133 3.695.867 8.421-2.829 10.554l-39.685 22.909c-1.216.702-2.544 1.036-3.855 1.036z" fill="#ffd064"/><g><path d="m458.173 66.511-19.783 11.422 16.69 28.907 19.783-11.422c7.982-4.609 10.717-14.816 6.109-22.798-4.61-7.983-14.817-10.718-22.799-6.109z" fill="#e175a5"/><path d="m428.906 72.615-248.974 143.745c-12.453 7.19-16.72 23.114-9.53 35.567s23.114 16.72 35.567 9.53l248.974-143.745c2.656-1.534 3.567-4.93 2.033-7.587l-20.483-35.478c-1.534-2.656-4.93-3.566-7.587-2.032z" fill="#5766cc"/><path d="m456.976 110.125-10.93-18.932c1.87 3.239 1.232 7.108-1.424 8.641l-248.974 143.746c-8.748 5.051-19.835 3.348-28.699-3.371.197 3.999 1.314 8.012 3.454 11.717 7.19 12.453 23.114 16.72 35.567 9.53l248.974-143.745c2.656-1.533 3.566-4.93 2.032-7.586z" fill="#3d4ec4"/></g><path d="m315.831 358.19-42.234-24.134c-6.213-3.55-11.38-8.676-14.98-14.861l-54.34-93.354c-6.981-11.993-3.991-27.303 6.99-35.789 11.913-9.205 29.001-7.188 38.443 4.538l40.262 50.004s75.73 19.393 73.883 21.24c-1.847 1.848-48.024 92.356-48.024 92.356z" fill="#ffcdbe"/><path d="m286.493 382.028v31.376l73.209 10 73.209-10v-31.376c0-5.244-4.251-9.494-9.494-9.494h-127.428c-5.245 0-9.496 4.25-9.496 9.494z" fill="#e175a5"/><path d="m423.416 372.534h-29.797c5.244 0 9.494 4.251 9.494 9.494v31.376h29.797v-31.376c.001-5.244-4.25-9.494-9.494-9.494z" fill="#ca59a6"/><path d="m266.15 506.849v-81.075c0-6.832 5.538-12.37 12.37-12.37h162.364c6.832 0 12.37 5.538 12.37 12.37v81.075c0 2.845-2.306 5.151-5.151 5.151h-176.802c-2.845 0-5.151-2.306-5.151-5.151z" fill="#80b6fc"/><path d="m440.884 413.404h-29.797c6.832 0 12.37 5.538 12.37 12.37v86.226h24.646c2.845 0 5.151-2.306 5.151-5.151v-81.075c0-6.831-5.538-12.37-12.37-12.37z" fill="#5392f9"/></g></svg>